<?xml version="1.0" encoding="UTF-8" standalone="no"?>
<!DOCTYPE svg PUBLIC "-//W3C//DTD SVG 1.1//EN" "http://www.w3.org/Graphics/SVG/1.1/DTD/svg11.dtd">
<svg width="100%" height="100%" viewBox="0 0 1080 1080" version="1.1" xmlns="http://www.w3.org/2000/svg" xmlns:xlink="http://www.w3.org/1999/xlink" xml:space="preserve" xmlns:serif="http://www.serif.com/" style="fill-rule:evenodd;clip-rule:evenodd;stroke-linejoin:round;stroke-miterlimit:2;">
    <g id="Fox" transform="matrix(1.08,0,0,1.25265,1.42109e-14,-78.2668)">
        <g id="Ear" transform="matrix(1,0,0,1,-18.4823,72.8573)">
            <path d="M477.85,172.25C540.162,107.56 627.813,51.563 695.408,36.833C704.685,86.697 698.889,275.124 640.336,391.036C567.742,330.35 482.277,317.158 482.277,317.158C482.277,317.158 487.703,258.424 477.85,172.25Z" style="fill:url(#_Radial1);"/>
        </g>
        <g id="Face" transform="matrix(1,0,0,1,0,52.0243)">
            <path d="M470.481,333.622C579.286,335.823 763.253,479.127 730.462,584.586C816.859,623.251 905.584,658.813 1000,686.787C991.746,811.151 937.14,834.364 799.354,846.496C704.359,854.861 636.748,837.911 555.805,824.052C483.456,870.602 259.201,900.056 184.655,834.643C203.357,825.579 252.506,792.038 260.919,781.57C108.889,765.008 18.149,669.663 0,534.551C36.49,546.171 80.953,561.196 122.119,572.259C71.941,514.793 50.778,424.008 38.991,306.865L161.342,357.138C196.097,200.608 288.592,80.476 408.829,10.456C456.563,54.022 485.343,245.202 470.481,333.622Z" style="fill:url(#_Radial2);"/>
        </g>
    </g>
    <defs>
        <radialGradient id="_Radial1" cx="0" cy="0" r="1" gradientUnits="userSpaceOnUse" gradientTransform="matrix(273.627,-362.269,362.269,273.627,426.092,399.102)"><stop offset="0" style="stop-color:white;stop-opacity:0.5"/><stop offset="0.18" style="stop-color:white;stop-opacity:0.71"/><stop offset="0.39" style="stop-color:white;stop-opacity:0.91"/><stop offset="1" style="stop-color:white;stop-opacity:1"/></radialGradient>
        <radialGradient id="_Radial2" cx="0" cy="0" r="1" gradientUnits="userSpaceOnUse" gradientTransform="matrix(-200.257,423.089,-558.083,-264.153,484.099,399.102)"><stop offset="0" style="stop-color:white;stop-opacity:1"/><stop offset="0.65" style="stop-color:white;stop-opacity:0.96"/><stop offset="1" style="stop-color:white;stop-opacity:0.75"/></radialGradient>
    </defs>
</svg>
